HIERARCHY
ROOT pelvis
{
  OFFSET 0 100 0
  CHANNELS 6 Xposition Yposition Zposition Zrotation Xrotation Yrotation
  JOINT pelvis_right_femur
  {
    OFFSET -10.78128 -3.44521 -0.5502486
    CHANNELS 3 Zrotation Xrotation Yrotation
    JOINT right_femur_tibia
    {
      OFFSET -0.8047443 -44.0398 -0.1307829
      CHANNELS 3 Zrotation Xrotation Yrotation
      JOINT right_tibia_foot
      {
        OFFSET 3.006224 -47.83518 -5
        CHANNELS 3 Zrotation Xrotation Yrotation
        End Site
        {
          OFFSET 0 -5 15
        }
      }
    }
  }
  JOINT pelvis_left_femur
  {
    OFFSET 10.78128 -3.44521 -0.5502486
    CHANNELS 3 Zrotation Xrotation Yrotation
    JOINT left_femur_tibia
    {
      OFFSET 0.8047443 -44.0398 -0.1307829
      CHANNELS 3 Zrotation Xrotation Yrotation
      JOINT left_tibia_foot
      {
        OFFSET -4.370144 -48.10324 -4.275266
        CHANNELS 3 Zrotation Xrotation Yrotation
        End Site
        {
          OFFSET 0 -5 15
        }
      }
    }
  }
  JOINT pelvis_spine1
  {
    OFFSET 0 6.468898 -3.129235
    CHANNELS 3 Zrotation Xrotation Yrotation
    JOINT spine1
    {
      OFFSET 0 23.15396 4.99043
      CHANNELS 3 Zrotation Xrotation Yrotation
      JOINT spine2
      {
        OFFSET 0 20.79997 -5.064912
        CHANNELS 3 Zrotation Xrotation Yrotation
        JOINT neck
        {
          OFFSET 0 14.38658 9.616178
          CHANNELS 3 Zrotation Xrotation Yrotation
          End Site
          {
            OFFSET 0 20 0
          }
        }
      }
      JOINT right_manubrium
      {
        OFFSET -5.722621 16.35077 3.967754
        CHANNELS 3 Zrotation Xrotation Yrotation
        JOINT right_clavicle
        {
          OFFSET -13.16364 1.694482 -4.693211
          CHANNELS 3 Zrotation Xrotation Yrotation
          JOINT right_humerus
          {
            OFFSET -28.5034 -0.3100689 -2.792744
            CHANNELS 3 Zrotation Xrotation Yrotation
            JOINT right_radius
            {
              OFFSET -25.15693 0.02248979 -1.271978
              CHANNELS 3 Zrotation Xrotation Yrotation
              End Site
              {
                OFFSET -15 0 0
              }
            }
          }
        }
      }
      JOINT left_manubrium
      {
        OFFSET 5.722621 16.35077 3.967754
        CHANNELS 3 Zrotation Xrotation Yrotation
        JOINT left_clavicle
        {
          OFFSET 13.16364 1.694482 -4.693211
          CHANNELS 3 Zrotation Xrotation Yrotation
          JOINT left_humerus
          {
            OFFSET 29.39168 -1.063119 -2.237045
            CHANNELS 3 Zrotation Xrotation Yrotation
            JOINT left_radius
            {
              OFFSET 24.59957 -0.9528479 0.9047498
              CHANNELS 3 Zrotation Xrotation Yrotation
              End Site
              {
                OFFSET 15 -0 -0
              }
            }
          }
        }
      }
    }
  }
}
MOTION
Frames: 18
Frame Time: 0.0416666666667
0 103.5113 0 0.3062873 2.257159 0.494488 3.250689 -14.4928 6.473289 -2.087769e-06 34.70875 2.154901e-06 -7.139211 -11.4136 -0.1033124 -7.266656 4.66534 -21.4794 2.567002e-06 3.41304 -1.083887e-05 5.325668 -17.36441 22.29707 -3.752392 -3.102531 4.787935 2.63488 9.309392 -7.654995 0.4071544 21.13816 8.109385 4.017625 -25.72714 9.131133 7.156608 -20.26083 11.94256 83.74203 39.15284 -17.18223 1.193351e-06 -7.158649e-08 16.83614 -8.596956 8.821078 6.995648 5.268603 -19.48506 -0.8773331 -96.17503 29.00447 26.89171 -2.320522e-06 -9.051179e-07 -15.91598 3.889591 15.72968 10.27219
0.6779179 103.7214 2.295789 0.3209787 2.230277 1.063799 3.177177 -15.94015 6.505549 -2.046638e-06 35.91979 2.10539e-06 -6.970521 -10.77849 -0.3499348 -7.382527 6.307039 -21.73001 3.003542e-06 3.439441 -1.111901e-05 5.260611 -17.90242 22.25784 -3.847183 -3.087627 4.566083 2.666301 9.254827 -7.784452 0.4338974 21.23056 8.218645 4.062668 -25.73363 9.276333 7.271631 -19.88804 11.8819 84.39609 39.21881 -17.90339 1.208109e-06 -2.908699e-08 16.31665 -8.521721 8.846188 6.831689 5.355028 -19.58997 -0.9199654 -95.93303 29.2988 26.08158 -2.202898e-06 -1.006916e-06 -16.38707 3.890778 15.6911 10.3057
1.329288 103.9131 4.631118 0.3029308 2.216829 1.665215 3.208822 -17.6882 6.412507 -1.819691e-06 35.76164 1.935195e-06 -6.842171 -10.34776 -0.6390469 -7.36505 8.022877 -21.76921 3.078796e-06 3.524729 -1.051637e-05 5.146863 -18.46756 22.0696 -3.875724 -3.054472 4.329937 2.735751 9.206897 -7.967388 0.4536741 21.29285 8.281845 4.075627 -25.70456 9.362759 7.258334 -19.52866 11.82522 85.1726 39.12167 -18.793 1.181916e-06 -4.46552e-08 15.70492 -8.506619 8.911158 6.652572 5.500067 -19.85615 -1.025716 -95.43512 29.4565 24.98321 -2.082089e-06 -1.022566e-06 -17.24465 3.991357 15.6583 10.16126
1.93617 104.0089 7.026176 0.2493621 2.226788 2.260242 3.35115 -19.55687 6.213608 -1.447453e-06 34.15686 1.686274e-06 -6.767163 -10.20035 -0.939364 -7.218279 9.614195 -21.58724 2.757813e-06 3.710077 -9.045649e-06 4.986073 -18.98959 21.74144 -3.830084 -3.006805 4.109249 2.839952 9.170427 -8.18808 0.4631927 21.31479 8.290813 4.054704 -25.64533 9.378243 7.120664 -19.22074 11.78288 85.98486 38.87957 -19.7612 1.117098e-06 -1.196842e-07 15.06456 -8.546171 9.015837 6.472452 5.689717 -20.26261 -1.17962 -94.74023 29.45225 23.71463 -1.97697e-06 -9.466967e-07 -18.42072 4.180634 15.63177 9.854276
2.479677 103.946 9.506782 0.1713442 2.248551 2.819899 3.579762 -21.6322 5.941729 -9.796946e-07 31.39016 1.411479e-06 -6.697437 -10.26573 -1.28118 -6.975787 11.21797 -21.22601 2.114341e-06 4.045913 -6.827392e-06 4.749462 -19.51091 21.27884 -3.728103 -2.940489 3.887436 2.975309 9.135188 -8.450298 0.4675738 21.31254 8.262594 4.00703 -25.55095 9.345926 6.890809 -18.91645 11.74884 86.88085 38.51769 -20.85357 1.020058e-06 -2.436814e-07 14.35856 -8.640131 9.172615 6.281691 5.924165 -20.79228 -1.37339 -93.87015 29.33367 22.2254 -1.875689e-06 -7.985877e-07 -19.91909 4.42312 15.58739 9.438312
2.951386 103.6838 12.08043 0.06991183 2.287942 3.314569 3.875043 -23.55534 5.629914 -5.007365e-07 27.70375 1.168827e-06 -6.672922 -10.56073 -1.594884 -6.662317 12.5258 -20.70803 1.196771e-06 4.526226 -4.129943e-06 4.47621 -19.90479 20.72326 -3.570658 -2.867346 3.703777 3.123418 9.106668 -8.709009 0.463596 21.25974 8.186724 3.933147 -25.42407 9.250128 6.586811 -18.6663 11.7236 87.61234 38.0782 -21.84632 9.028453e-07 -4.001735e-07 13.68753 -8.750971 9.344074 6.098505 6.16026 -21.36196 -1.578753 -92.87318 29.08291 20.73842 -1.798781e-06 -5.949158e-07 -21.504 4.702525 15.5327 8.93842
3.345901 103.2313 14.77207 -0.0259091 2.277713 3.734057 4.186483 -25.32612 5.342595 -8.99658e-08 23.92976 1.003189e-06 -6.617483 -10.87669 -1.934319 -6.346067 13.71487 -20.11046 2.319109e-07 5.448361 -1.368818e-06 4.100808 -20.19008 20.10632 -3.393094 -2.776974 3.537246 3.263327 9.086538 -8.953485 0.464705 21.21456 8.096229 3.850607 -25.25834 9.138876 6.273766 -18.39422 11.70246 88.32973 37.59435 -22.81772 7.858455e-07 -5.499981e-07 12.99536 -8.912012 9.550565 5.924451 6.374165 -21.91672 -1.78912 -91.87891 28.79946 19.24185 -1.725396e-06 -3.935541e-07 -23.08125 4.93395 15.42635 8.4877
3.668878 102.6271 17.60152 -0.1005961 2.187752 4.077095 4.472629 -26.7001 5.102928 2.154731e-07 20.57056 9.126185e-07 -6.530608 -11.13418 -2.272127 -6.063208 14.64724 -19.47713 -6.719986e-07 6.808088 1.124508e-06 3.642329 -20.31101 19.48577 -3.2133 -2.672877 3.403522 3.371802 9.081304 -9.148128 0.4746018 21.18961 7.997117 3.765652 -25.05421 9.022311 5.976612 -18.12004 11.68386 88.9547 37.08888 -23.64827 6.817434e-07 -6.69677e-07 12.34512 -9.133688 9.772195 5.787276 6.532811 -22.38397 -1.991462 -90.9813 28.51129 17.88429 -1.656144e-06 -2.232308e-07 -24.45028 5.078448 15.26747 8.147298
3.934776 101.9774 20.60265 -0.1273688 1.940498 4.356907 4.697511 -27.45855 4.980341 3.213801e-07 18.52402 9.109229e-07 -6.37698 -11.12708 -2.626411 -5.877468 15.30808 -18.86857 -1.264181e-06 9.078372 2.818458e-06 3.045966 -20.18074 18.90201 -3.05554 -2.549014 3.306677 3.420015 9.109709 -9.260459 0.5052069 21.23571 7.910931 3.694985 -24.80966 8.932686 5.760249 -17.79933 11.66945 89.55389 36.59859 -24.32955 6.195769e-07 -7.086193e-07 11.7156 -9.43765 10.01188 5.695772 6.583935 -22.6801 -2.176796 -90.32961 28.31007 16.76702 -1.593198e-06 -1.520732e-07 -25.40382 5.055293 15.02663 8.047693
4.165693 101.4283 23.7891 -0.1110098 1.534349 4.587123 4.862238 -27.34125 4.983991 1.778173e-07 18.07112 9.732117e-07 -6.242257 -10.77887 -2.930884 -5.798125 15.50609 -18.30659 -1.408461e-06 12.40211 3.397422e-06 2.372038 -19.66645 18.3829 -2.91313 -2.420789 3.266699 3.39529 9.189703 -9.256523 0.5533956 21.32375 7.824691 3.641373 -24.53433 8.850091 5.634491 -17.45952 11.65473 89.92132 36.15491 -24.70806 6.159723e-07 -6.399477e-07 11.13037 -9.754351 10.20895 5.636735 6.480327 -22.74467 -2.33694 -89.88292 28.18301 16.04232 -1.559543e-06 -2.118109e-07 -25.73231 4.895278 14.73346 8.154718
4.378637 101.1205 27.17834 -0.06252473 0.9810517 4.770027 5.01103 -26.33408 5.114656 -2.212888e-07 18.88181 1.120234e-06 -6.141335 -10.17971 -3.186013 -5.790879 15.1649 -17.74034 -1.13704e-06 16.98111 3.005824e-06 1.602916 -18.71831 17.90556 -2.7648 -2.28605 3.299412 3.308505 9.330579 -9.146092 0.6155825 21.44892 7.727995 3.601446 -24.2337 8.759262 5.588848 -17.11382 11.65194 90.09506 35.76021 -24.82771 6.701205e-07 -4.742709e-07 10.58379 -10.08185 10.38136 5.602538 6.225716 -22.6096 -2.473599 -89.64675 28.11205 15.71604 -1.573031e-06 -3.848767e-07 -25.50497 4.612133 14.38659 8.449387
4.579418 101.1564 30.79645 -0.01236508 0.3354 4.87613 5.246959 -24.35881 5.375741 -8.735245e-07 19.9556 1.425764e-06 -6.090014 -9.670088 -3.38015 -5.763713 13.99667 -17.0401 -7.267965e-07 23.09021 2.174306e-06 0.6990963 -17.23578 17.42512 -2.560886 -2.139795 3.460784 3.188492 9.544329 -8.951577 0.6795735 21.59357 7.595057 3.564058 -23.92464 8.62165 5.595207 -16.82934 11.69756 90.13544 35.43373 -24.74864 7.712879e-07 -2.552601e-07 10.13554 -10.43156 10.58866 5.598774 5.842177 -22.35303 -2.576717 -89.69494 28.04122 15.85878 -1.682276e-06 -6.036244e-07 -24.90489 4.220436 13.97996 8.906901
4.760401 101.6017 34.63387 -0.004164727 -0.2850337 4.85779 5.628702 -21.59944 5.723965 -1.726699e-06 20.48629 1.876355e-06 -6.179605 -9.434024 -3.456333 -5.640521 11.98572 -16.18188 -3.626579e-07 30.47808 1.283666e-06 -0.2415207 -15.22648 16.91285 -2.270555 -2.001974 3.754169 3.070802 9.81706 -8.703034 0.727793 21.67408 7.403642 3.521377 -23.63162 8.396787 5.625542 -16.63438 11.78869 89.85604 35.21916 -24.4575 9.080853e-07 -1.791243e-08 9.772393 -10.67107 10.79323 5.565044 5.358536 -22.03619 -2.634677 -89.81829 27.8963 16.41951 -1.917092e-06 -8.267445e-07 -24.07756 3.82976 13.5632 9.370197
4.929703 102.4243 38.69845 -0.00561766 -0.9129561 4.676179 6.029363 -17.88284 6.06923 -2.643322e-06 20.34792 2.441359e-06 -6.258299 -9.688746 -3.43689 -5.374368 8.907793 -15.14486 -2.624616e-07 38.0798 6.27906e-07 -1.204288 -12.8887 16.5069 -1.936915 -1.849896 4.206791 2.92766 10.11845 -8.376511 0.7663362 21.75316 7.165317 3.459867 -23.33038 8.114505 5.625341 -16.65694 11.93598 89.40707 35.03212 -23.8469 1.040447e-06 1.846536e-07 9.777135 -11.05072 11.06756 5.675683 4.834113 -21.64689 -2.643312 -90.31026 27.68173 17.52333 -2.227718e-06 -9.746474e-07 -23.01136 3.333297 13.10297 9.967653
5.096862 103.5234 42.96448 -0.0176996 -1.476415 4.312945 6.362327 -13.57351 6.312044 -3.439902e-06 19.39141 2.997432e-06 -6.298293 -10.43786 -3.306831 -4.941286 5.042372 -14.00067 -6.680731e-07 44.56722 5.366942e-07 -2.054564 -10.52578 16.25052 -1.601244 -1.695084 4.761641 2.762877 10.38871 -7.986991 0.7912997 21.78362 6.888964 3.3699 -23.00631 7.787371 5.546864 -16.91198 12.09699 88.63348 34.82874 -22.83322 1.133853e-06 3.132718e-07 10.20379 -11.55947 11.35785 5.948899 4.337427 -21.19568 -2.604961 -90.94747 27.36733 18.99215 -2.559086e-06 -1.005687e-06 -21.78193 2.788844 12.63538 10.59725
5.269537 104.7394 47.40114 -0.02549409 -1.955453 3.77834 6.556831 -9.223595 6.390485 -3.951833e-06 17.7443 3.43302e-06 -6.226907 -11.55305 -3.117379 -4.36956 0.9263833 -12.83124 -1.793667e-06 48.89052 1.316775e-06 -2.733299 -8.497301 16.14975 -1.314723 -1.538708 5.330685 2.581721 10.57736 -7.571663 0.807914 21.77194 6.60326 3.250255 -22.64497 7.458121 5.358306 -17.35268 12.23225 87.63405 34.53011 -21.5099 1.159599e-06 3.430354e-07 11.00772 -12.23333 11.64179 6.394564 3.943115 -20.72508 -2.545191 -91.57298 26.97253 20.52834 -2.835434e-06 -8.991951e-07 -20.5551 2.22917 12.17879 11.20056
5.468664 105.905 51.97135 -0.004632497 -2.372348 3.107873 6.540246 -4.873325 6.313351 -4.162619e-06 16.02342 3.72617e-06 -6.01742 -12.88935 -2.859019 -3.724731 -3.309106 -11.74473 -3.303173e-06 50.43561 2.499743e-06 -3.186224 -6.963826 16.27634 -1.126411 -1.390286 5.888456 2.364726 10.67311 -7.118508 0.8218456 21.75374 6.335461 3.110436 -22.26287 7.167366 5.06895 -18.00235 12.32862 86.48298 34.11295 -19.84301 1.116217e-06 2.831354e-07 12.25556 -13.11733 11.88433 7.059471 3.662056 -20.20083 -2.465847 -92.29536 26.53412 22.17794 -3.016201e-06 -6.719161e-07 -19.21521 1.641404 11.7602 11.80905
5.711412 106.8215 56.64395 0.05207102 -2.706593 2.347805 6.310215 -0.9244639 6.07354 -3.992311e-06 14.08826 3.853851e-06 -5.599137 -14.41197 -2.576942 -3.036191 -7.305308 -10.7525 -5.11997e-06 48.76706 4.124219e-06 -3.421046 -6.118548 16.57308 -1.054013 -1.245437 6.379654 2.125641 10.63781 -6.661421 0.8362771 21.71822 6.09744 2.945087 -21.83316 6.932591 4.660006 -18.79402 12.35605 85.23665 33.53256 -17.94123 9.91603e-07 1.08584e-07 13.86999 -14.21803 12.08662 7.924993 3.543091 -19.65951 -2.38255 -92.93534 26.07682 23.67469 -3.068324e-06 -2.974551e-07 -17.94419 1.035758 11.3635 12.38987
